<mxfile host="app.diagrams.net" modified="2024-06-12T09:45:38.627Z" agent="Mozilla/5.0 (Windows NT 10.0; Win64; x64) AppleWebKit/537.36 (KHTML, like Gecko) Chrome/125.0.0.0 Safari/537.36" etag="AC-R4OLie0cenQDKJH3S" version="24.5.3" type="device">
  <diagram name="Page-1" id="S8YTOZrHcixdIfj45pyo">
    <mxGraphModel dx="1827" dy="607" grid="1" gridSize="10" guides="1" tooltips="1" connect="1" arrows="1" fold="1" page="1" pageScale="1" pageWidth="850" pageHeight="1100" math="0" shadow="0">
      <root>
        <mxCell id="0" />
        <mxCell id="1" parent="0" />
        <mxCell id="GJ0jhzYokG_Ww_z6DMh3-17" value="&lt;div&gt;&lt;br&gt;&lt;/div&gt;&lt;div&gt;&lt;br&gt;&lt;/div&gt;&lt;div&gt;&lt;br&gt;&lt;/div&gt;&lt;div&gt;&lt;br&gt;&lt;/div&gt;+ interpret(Context)" style="whiteSpace=wrap;html=1;aspect=fixed;align=center;" vertex="1" parent="1">
          <mxGeometry x="350" y="110" width="150" height="150" as="geometry" />
        </mxCell>
        <mxCell id="GJ0jhzYokG_Ww_z6DMh3-18" value="&lt;div&gt;&lt;br&gt;&lt;/div&gt;&lt;div&gt;&lt;br&gt;&lt;/div&gt;&lt;div&gt;&lt;br&gt;&lt;/div&gt;&lt;div&gt;+interpret(Context)&lt;/div&gt;" style="rounded=0;whiteSpace=wrap;html=1;" vertex="1" parent="1">
          <mxGeometry x="210" y="380" width="200" height="150" as="geometry" />
        </mxCell>
        <mxCell id="GJ0jhzYokG_Ww_z6DMh3-19" value="&lt;div&gt;&lt;br&gt;&lt;/div&gt;&lt;div&gt;&lt;br&gt;&lt;/div&gt;&lt;div&gt;&lt;br&gt;&lt;/div&gt;&lt;div&gt;&lt;div&gt;+interpret(Context)&lt;/div&gt;&lt;/div&gt;" style="rounded=0;whiteSpace=wrap;html=1;" vertex="1" parent="1">
          <mxGeometry x="480" y="380" width="200" height="150" as="geometry" />
        </mxCell>
        <mxCell id="GJ0jhzYokG_Ww_z6DMh3-20" value="&lt;b&gt;Terminal Expression&lt;/b&gt;" style="rounded=0;whiteSpace=wrap;html=1;" vertex="1" parent="1">
          <mxGeometry x="210" y="380" width="200" height="60" as="geometry" />
        </mxCell>
        <mxCell id="GJ0jhzYokG_Ww_z6DMh3-21" value="&lt;b&gt;Non Terminal Expression&lt;/b&gt;" style="rounded=0;whiteSpace=wrap;html=1;" vertex="1" parent="1">
          <mxGeometry x="480" y="380" width="200" height="60" as="geometry" />
        </mxCell>
        <mxCell id="GJ0jhzYokG_Ww_z6DMh3-22" value="&lt;b&gt;Abstract Expression&lt;/b&gt;" style="rounded=0;whiteSpace=wrap;html=1;" vertex="1" parent="1">
          <mxGeometry x="350" y="110" width="150" height="60" as="geometry" />
        </mxCell>
        <mxCell id="GJ0jhzYokG_Ww_z6DMh3-23" value="" style="edgeStyle=orthogonalEdgeStyle;rounded=0;orthogonalLoop=1;jettySize=auto;html=1;" edge="1" parent="1" source="GJ0jhzYokG_Ww_z6DMh3-24" target="GJ0jhzYokG_Ww_z6DMh3-25">
          <mxGeometry relative="1" as="geometry" />
        </mxCell>
        <mxCell id="GJ0jhzYokG_Ww_z6DMh3-24" value="&lt;b&gt;Client&lt;/b&gt;" style="rounded=0;whiteSpace=wrap;html=1;" vertex="1" parent="1">
          <mxGeometry x="-90" y="270" width="150" height="60" as="geometry" />
        </mxCell>
        <mxCell id="GJ0jhzYokG_Ww_z6DMh3-25" value="&lt;b&gt;Context&lt;/b&gt;" style="whiteSpace=wrap;html=1;rounded=0;" vertex="1" parent="1">
          <mxGeometry x="-75" y="410" width="120" height="60" as="geometry" />
        </mxCell>
        <mxCell id="GJ0jhzYokG_Ww_z6DMh3-26" value="" style="endArrow=classic;html=1;rounded=0;" edge="1" parent="1" target="GJ0jhzYokG_Ww_z6DMh3-21">
          <mxGeometry width="50" height="50" relative="1" as="geometry">
            <mxPoint x="480" y="260" as="sourcePoint" />
            <mxPoint x="530" y="210" as="targetPoint" />
          </mxGeometry>
        </mxCell>
        <mxCell id="GJ0jhzYokG_Ww_z6DMh3-27" value="" style="endArrow=classic;html=1;rounded=0;entryX=0.463;entryY=0.002;entryDx=0;entryDy=0;entryPerimeter=0;" edge="1" parent="1" target="GJ0jhzYokG_Ww_z6DMh3-20">
          <mxGeometry width="50" height="50" relative="1" as="geometry">
            <mxPoint x="380" y="260" as="sourcePoint" />
            <mxPoint x="460" y="380" as="targetPoint" />
          </mxGeometry>
        </mxCell>
        <mxCell id="GJ0jhzYokG_Ww_z6DMh3-28" value="is-a" style="text;html=1;align=center;verticalAlign=middle;resizable=0;points=[];autosize=1;strokeColor=none;fillColor=none;" vertex="1" parent="1">
          <mxGeometry x="300" y="308" width="40" height="30" as="geometry" />
        </mxCell>
        <mxCell id="GJ0jhzYokG_Ww_z6DMh3-29" value="is-a" style="text;html=1;align=center;verticalAlign=middle;resizable=0;points=[];autosize=1;strokeColor=none;fillColor=none;" vertex="1" parent="1">
          <mxGeometry x="510" y="298" width="40" height="30" as="geometry" />
        </mxCell>
        <mxCell id="GJ0jhzYokG_Ww_z6DMh3-30" value="" style="endArrow=classic;html=1;rounded=0;" edge="1" parent="1">
          <mxGeometry width="50" height="50" relative="1" as="geometry">
            <mxPoint x="680" y="460" as="sourcePoint" />
            <mxPoint x="510" y="210" as="targetPoint" />
            <Array as="points">
              <mxPoint x="800" y="460" />
              <mxPoint x="800" y="210" />
            </Array>
          </mxGeometry>
        </mxCell>
        <mxCell id="GJ0jhzYokG_Ww_z6DMh3-31" value="" style="edgeStyle=orthogonalEdgeStyle;rounded=0;orthogonalLoop=1;jettySize=auto;html=1;exitX=0.5;exitY=0;exitDx=0;exitDy=0;" edge="1" parent="1" source="GJ0jhzYokG_Ww_z6DMh3-24">
          <mxGeometry relative="1" as="geometry">
            <mxPoint x="-20" y="260" as="sourcePoint" />
            <mxPoint x="340" y="210" as="targetPoint" />
            <Array as="points">
              <mxPoint x="30" y="270" />
              <mxPoint x="30" y="210" />
            </Array>
          </mxGeometry>
        </mxCell>
        <mxCell id="GJ0jhzYokG_Ww_z6DMh3-32" value="&amp;lt;&amp;lt;Interface&amp;gt;&amp;gt;" style="text;html=1;align=center;verticalAlign=middle;resizable=0;points=[];autosize=1;strokeColor=none;fillColor=none;" vertex="1" parent="1">
          <mxGeometry x="370" y="68" width="100" height="30" as="geometry" />
        </mxCell>
      </root>
    </mxGraphModel>
  </diagram>
</mxfile>
